<svg width="280" height="71" viewBox="0 0 280 71" fill="none" xmlns="http://www.w3.org/2000/svg">
<path d="M188.081 11.6983C185.216 11.6983 182.351 11.6983 179.486 11.6983C179.486 24.1917 179.486 36.6874 179.486 49.1808C182.351 49.1808 185.216 49.1808 188.081 49.1808C188.081 36.6874 188.081 24.1917 188.081 11.6983Z" fill="#21B0FE"/>
<path d="M175.677 28.6447C174.96 25.5955 172.983 23.5645 170.06 22.4003C167.137 21.2342 163.144 21.6065 160.485 23.3072C157.825 25.0079 156.368 28.101 156.739 31.1593C157.109 34.2177 160.263 36.1447 162.596 37.1629C164.93 38.1812 170.239 38.5188 169.275 41.9512C168.31 45.3837 162.695 43.1465 162.356 40.506C160.748 41.2122 158.89 41.3089 157.286 42.006C155.684 42.7049 157.33 44.8983 158.295 46.026C159.263 47.1537 160.657 48.1355 162.159 48.7322C163.662 49.3271 165.936 49.7267 167.648 49.4475C169.359 49.1683 171.153 48.8709 172.533 47.7632C173.912 46.6556 174.781 45.7705 175.507 44.1684C176.233 42.5662 176.392 40.3436 175.855 38.6848C175.317 37.0279 174.501 35.9111 173.076 34.8947C171.651 33.8801 170.217 33.4038 168.6 32.8016C166.983 32.1995 165.297 32.2141 163.956 30.8765C162.615 29.5389 164.252 27.2086 165.965 27.4075C167.679 27.6064 169.129 28.6356 169.655 30.2871C171.731 29.9842 173.622 29.0097 175.677 28.6447Z" fill="#21B0FE"/>
<path d="M218.879 37.7212C220.603 27.4648 209.81 19.3381 200.549 22.4942C191.29 25.6528 188.378 37.5015 194.468 44.7044C200.561 51.9048 213.116 51.0764 217.686 42.9735C215.566 41.8443 213.395 40.9108 211.24 39.8699C208.408 43.8354 200.835 42.8947 200.019 37.7212C206.305 37.7212 212.593 37.7212 218.879 37.7212ZM210.285 32.7076C206.863 32.7076 203.44 32.7076 200.019 32.7076C200.09 26.4359 210.385 26.3905 210.285 32.7076Z" fill="#21B0FE"/>
<path d="M248.483 37.7212C250.078 27.4887 239.461 19.3381 230.153 22.4942C220.846 25.6528 217.915 37.4872 224.072 44.7044C230.231 51.9191 242.639 51.0239 247.289 42.9735C245.067 42.1379 243.011 40.8773 240.843 39.8699C237.983 43.8019 230.356 42.9186 229.623 37.7212C235.909 37.7212 242.197 37.7212 248.483 37.7212ZM239.888 32.7076C236.467 32.7076 233.044 32.7076 229.623 32.7076C229.549 26.4215 239.974 26.4191 239.888 32.7076Z" fill="#21B0FE"/>
<path d="M260.182 47.2708C269.218 53.8911 280.231 45.4779 279.997 35.3337C279.763 25.1896 268.49 17.5403 259.704 24.3516C259.181 23.9458 259.599 23.0433 259.465 22.4417C256.839 22.4417 254.213 22.4417 251.587 22.4417C251.587 34.935 251.587 47.4308 251.587 59.9241C254.452 59.9241 257.317 59.9241 260.182 59.9241C260.182 55.7056 260.182 51.4894 260.182 47.2708ZM267.583 30.0814C274.095 31.6953 271.438 43.0761 264.796 41.2235C258.155 39.3709 260.728 28.384 267.583 30.0814Z" fill="#21B0FE"/>
<path d="M108.818 11.4595C105.953 11.4595 103.089 11.4595 100.224 11.4595C100.224 23.9529 100.224 36.4486 100.224 48.942C102.85 48.942 105.476 48.942 108.102 48.942C108.102 48.2258 108.102 47.5095 108.102 46.7933C116.833 53.3826 128.233 46.3039 128.634 36.0499C129.035 25.796 118.072 17.4161 108.818 23.6354C108.818 19.5768 108.818 15.5181 108.818 11.4595ZM116.219 29.8427C122.68 31.4422 120.07 42.8207 113.433 40.9847C106.796 39.1488 109.305 28.1309 116.219 29.8427Z" fill="#02579A"/>
<path d="M44.1196 29.3651C42.3864 23.5446 42.7922 15.0287 35.2886 13.1283C27.7825 11.2279 22.2031 16.115 22.3225 24.1128C22.3225 32.23 22.2031 40.8247 22.2031 48.942C25.068 48.942 28.1239 48.942 30.9888 48.942C30.9888 46.1964 31.0366 43.6896 31.0366 40.8247C31.0366 38.0792 30.9888 35.6918 30.9888 32.7075C30.9888 29.962 31.0883 27.6939 31.0366 24.5903C30.9968 22.2029 33.0325 19.8179 33.8561 22.678C34.6798 25.5405 34.7371 26.8583 35.3339 29.3651C35.9308 31.8719 35.6085 30.8597 36.2436 33.1778C36.7664 35.5676 36.0979 32.5834 36.6947 34.8514C37.2916 37.1195 37.6497 39.0294 38.1988 41.2974C40.825 41.2974 47.314 41.2974 49.9401 41.2974C50.6158 39.4305 50.8903 37.2412 51.3893 35.3456C51.8882 33.4524 51.1697 36.4796 51.5684 34.6174C51.9694 32.7576 51.8764 33.2733 52.2392 31.5162C52.6021 29.7567 53.2372 27.226 53.5905 25.7052C53.9439 24.1844 54.0656 20.706 56.1045 21.4867C57.4724 22.0105 57.0594 25.5453 57.0594 27.4552C57.0594 29.4845 57.0594 32.4688 57.0594 34.6174C57.0594 36.8855 57.0594 39.5117 57.0594 41.7797C57.0594 44.1671 57.0594 46.6739 57.0594 48.942C60.0031 48.942 62.9015 48.942 65.8451 48.942C65.8451 40.8247 65.8451 31.8719 65.8451 23.8741C65.8451 15.7569 60.0628 11.2757 52.7311 13.1474C45.3993 15.0215 45.4542 23.4085 44.1196 29.3651Z" fill="#02579A"/>
<path d="M84.4668 21.4867C73.5778 20.1712 65.8736 32.7434 70.7869 41.8514C75.6979 50.9617 88.4204 52.0074 94.5131 43.47C100.608 34.9326 94.7662 22.7305 84.4668 21.4867ZM84.4668 29.8426C91.0752 31.2106 88.4395 42.8947 81.7882 40.8773C75.1344 38.8599 77.7081 28.4436 84.4668 29.8426Z" fill="#02579A"/>
<path d="M145.585 22.2029C145.248 24.2227 145.241 26.092 144.816 28.1189C144.558 30.2008 144.215 31.743 143.909 33.8965C143.603 36.0499 143.608 37.2866 142.956 39.6287C142.307 41.9707 141.349 39.6287 140.858 37.6018C140.309 35.3337 140.061 33.8869 139.803 31.8051C139.545 29.7233 139.201 28.0616 138.895 26.0276C138.59 23.9935 138.351 22.0835 136.035 22.2029C133.218 22.2029 131.845 22.2029 129.351 22.2029C130.11 27.491 131.867 33.4333 132.454 38.6761C133.044 43.9165 135.181 48.911 141.049 49.4195C139.628 52.6664 135.708 53.3969 132.454 53.2393C132.454 55.4668 132.454 57.6967 132.454 59.9241C140.672 60.6929 148.899 56.0541 149.935 47.5621C150.971 39.07 153.373 30.7164 154.418 22.2029C151.475 22.2029 148.529 22.2029 145.585 22.2029Z" fill="#02579A"/>
<path d="M38.0057 11.265C40.1279 11.101 42.9676 10.6846 42.9735 10.6154C43.0323 9.92563 43.6556 5.36128 41.5716 2.77537C37.8429 -1.57911 34.5325 0.0900033 31.573 1.74148C28.3475 1.23527 24.2097 1.17287 20.5621 3.56361C16.9144 5.95434 13.8302 7.99298 12.1715 10.8468C7.16971 9.7302 0.796202 12.0596 0.0726992 17.9271C-0.646622 23.7904 4.12563 25.304 7.60075 28.1116C8.14442 32.9712 9.27749 41.2799 11.6278 45.6879C13.974 50.0916 15.8643 53.8053 19.8038 57.1635C23.7434 60.5218 27.0221 62.8052 31.9654 64.6579C36.9086 66.5105 43.7714 67.188 49.3922 66.8869C52.116 72.4997 60.1089 70.8448 62.6444 66.5C65.18 62.1552 64.4063 63.8685 65.3674 62.084C67.9239 60.5266 70.1027 58.3018 72.0089 56.0469C74.5095 53.089 76.3974 53.0002 74.1293 51.3295C73.3694 50.7697 71.3289 51.2973 69.9513 51.3295C69.784 55.0515 70.5912 52.3583 67.2706 55.0725C65.0707 56.8684 63.5558 58.0383 61.6164 59.0822C61.1069 60.2642 60.3962 61.4313 59.952 62.8094C58.2032 66.7404 52.5471 67.8345 51.9014 62.2866C29.8409 66.7615 9.44478 46.7334 12.1715 24.6477C9.62461 23.5729 4.9783 21.9336 4.79428 18.2491C4.60609 14.5647 11.8997 14.3389 14.2626 15.8653C15.5799 13.4899 17.0003 11.5506 19.3338 9.64492C21.6673 7.73921 23.4764 5.92486 26.8088 5.8283C28.4283 5.78138 30.4869 6.07059 32.1865 7.0037C33.18 6.18567 33.6424 5.73713 34.4301 5.22989C37.6688 3.1443 39.7611 5.82597 38.0057 11.265Z" fill="#2DB5E4"/>
</svg>
