<svg width="300" height="92" viewBox="0 0 300 92" fill="none" xmlns="http://www.w3.org/2000/svg">
<path d="M201.515 12.534C198.446 12.534 195.376 12.534 192.307 12.534C192.307 25.9197 192.307 39.308 192.307 52.6938C195.376 52.6938 198.446 52.6938 201.515 52.6938C201.515 39.308 201.515 25.9197 201.515 12.534Z" fill="#21B0FE"/>
<path d="M188.225 30.6908C187.456 27.4238 185.339 25.2477 182.207 24.0003C179.075 22.751 174.797 23.1498 171.948 24.972C169.098 26.7942 167.537 30.1082 167.934 33.385C168.331 36.6618 171.71 38.7265 174.21 39.8175C176.711 40.9084 182.398 41.2701 181.366 44.9478C180.332 48.6254 174.316 46.2284 173.952 43.3993C172.23 44.1559 170.239 44.2596 168.521 45.0064C166.804 45.7552 168.568 48.1053 169.602 49.3136C170.638 50.5219 172.132 51.5738 173.741 52.2131C175.352 52.8505 177.788 53.2786 179.622 52.9795C181.456 52.6804 183.378 52.3617 184.856 51.1749C186.334 49.9881 187.265 49.0399 188.043 47.3233C188.821 45.6066 188.991 43.2253 188.416 41.448C187.84 39.6728 186.966 38.4762 185.439 37.3872C183.912 36.3001 182.375 35.7899 180.643 35.1447C178.91 34.4995 177.104 34.5151 175.667 33.082C174.23 31.6488 175.984 29.1521 177.819 29.3652C179.655 29.5783 181.21 30.6811 181.773 32.4505C183.998 32.1259 186.023 31.0819 188.225 30.6908Z" fill="#21B0FE"/>
<path d="M234.513 40.4155C236.36 29.4266 224.795 20.7194 214.873 24.101C204.953 27.4851 201.832 40.1802 208.358 47.8975C214.886 55.6123 228.338 54.7247 233.234 46.043C230.962 44.8331 228.637 43.833 226.327 42.7177C223.294 46.9664 215.18 45.9586 214.305 40.4155C221.04 40.4155 227.778 40.4155 234.513 40.4155ZM225.304 35.0439C221.639 35.0439 217.971 35.0439 214.305 35.0439C214.382 28.3241 225.412 28.2755 225.304 35.0439Z" fill="#21B0FE"/>
<path d="M266.231 40.4157C267.94 29.4523 256.564 20.7195 246.591 24.1011C236.62 27.4853 233.479 40.165 240.076 47.8977C246.675 55.6278 259.969 54.6686 264.952 46.0432C262.57 45.1479 260.368 43.7973 258.045 42.7179C254.981 46.9308 246.808 45.9844 246.023 40.4157C252.758 40.4157 259.496 40.4157 266.231 40.4157ZM257.022 35.044C253.357 35.044 249.689 35.044 246.023 35.044C245.944 28.3089 257.114 28.3064 257.022 35.044Z" fill="#21B0FE"/>
<path d="M278.765 50.6473C288.447 57.7405 300.247 48.7263 299.996 37.8576C299.746 26.9888 287.667 18.7932 278.254 26.091C277.693 25.6562 278.141 24.6892 277.998 24.0446C275.184 24.0446 272.37 24.0446 269.557 24.0446C269.557 37.4304 269.557 50.8187 269.557 64.2044C272.626 64.2044 275.696 64.2044 278.765 64.2044C278.765 59.6845 278.765 55.1672 278.765 50.6473ZM286.695 32.2301C293.673 33.9592 290.826 46.153 283.71 44.168C276.594 42.183 279.351 30.4114 286.695 32.2301Z" fill="#21B0FE"/>
<path d="M116.591 12.2782C113.522 12.2782 110.452 12.2782 107.383 12.2782C107.383 25.664 107.383 39.0523 107.383 52.438C110.197 52.438 113.01 52.438 115.824 52.438C115.824 51.6706 115.824 50.9032 115.824 50.1358C125.178 57.1958 137.393 49.6115 137.822 38.6251C138.252 27.6387 126.506 18.6603 116.591 25.3238C116.591 20.9752 116.591 16.6267 116.591 12.2782ZM124.521 31.9744C131.443 33.6882 128.647 45.8794 121.536 43.9124C114.425 41.9453 117.113 30.1404 124.521 31.9744Z" fill="#02579A"/>
<path d="M47.271 31.4627C45.414 25.2264 45.8488 16.1022 37.8092 14.0661C29.767 12.03 23.7891 17.2661 23.917 25.8352C23.917 34.5322 23.7891 43.7408 23.7891 52.4379C26.8586 52.4379 30.1328 52.4379 33.2023 52.4379C33.2023 49.4962 33.2535 46.8104 33.2535 43.7408C33.2535 40.7992 33.2023 38.2412 33.2023 35.0438C33.2023 32.1022 33.3089 29.6721 33.2535 26.3468C33.2109 23.7888 35.3919 21.2335 36.2744 24.2979C37.1569 27.3649 37.2183 28.7768 37.8578 31.4627C38.4973 34.1485 38.152 33.064 38.8324 35.5477C39.3925 38.1082 38.6763 34.9108 39.3158 37.3408C39.9553 39.7709 40.339 41.8173 40.9273 44.2473C43.7411 44.2473 50.6935 44.2473 53.5073 44.2473C54.2312 42.247 54.5253 39.9013 55.0599 37.8703C55.5946 35.8419 54.8246 39.0854 55.2518 37.0902C55.6815 35.0975 55.5818 35.65 55.9706 33.7674C56.3594 31.8822 57.0398 29.1708 57.4184 27.5414C57.797 25.9119 57.9274 22.185 60.1119 23.0215C61.5776 23.5827 61.1351 27.37 61.1351 29.4163C61.1351 31.5906 61.1351 34.788 61.1351 37.0902C61.1351 39.5202 61.1351 42.334 61.1351 44.764C61.1351 47.322 61.1351 50.0078 61.1351 52.4378C64.289 52.4378 67.3944 52.4379 70.5484 52.4379C70.5484 43.7408 70.5484 34.1485 70.5484 25.5794C70.5484 16.8824 64.353 12.0811 56.4976 14.0865C48.6421 16.0945 48.7009 25.0806 47.271 31.4627Z" fill="#02579A"/>
<path d="M90.5003 23.0214C78.8335 21.612 70.579 35.0822 75.8433 44.8407C81.105 54.6019 94.7363 55.7222 101.264 46.575C107.795 37.4278 101.535 24.3541 90.5003 23.0214ZM90.5003 31.9743C97.5807 33.44 94.7568 45.9586 87.6303 43.7971C80.5013 41.6356 83.2588 30.4753 90.5003 31.9743Z" fill="#02579A"/>
<path d="M155.984 23.7889C155.623 25.9529 155.616 27.9558 155.16 30.1275C154.884 32.358 154.516 34.0105 154.188 36.3177C153.861 38.625 153.866 39.95 153.168 42.4594C152.472 44.9687 151.445 42.4594 150.919 40.2877C150.331 37.8576 150.065 36.3075 149.789 34.077C149.512 31.8464 149.144 30.0661 148.817 27.8867C148.489 25.7074 148.233 23.661 145.752 23.7889C142.734 23.7889 141.262 23.7889 138.59 23.7889C139.403 29.4548 141.286 35.8215 141.915 41.4388C142.547 47.0534 144.836 52.4047 151.124 52.9495C149.602 56.4283 145.402 57.2111 141.915 57.0422C141.915 59.4288 141.915 61.8179 141.915 64.2045C150.72 65.0281 159.534 60.0581 160.644 50.9594C161.755 41.8608 164.328 32.9106 165.448 23.7889C162.294 23.7889 159.138 23.7889 155.984 23.7889Z" fill="#02579A"/>
<path d="M40.7204 12.0697C42.9942 11.8939 46.0367 11.4478 46.0431 11.3736C46.106 10.6346 46.7739 5.74423 44.5411 2.97361C40.5459 -1.6919 36.9991 0.0964321 33.8282 1.86587C30.3723 1.3235 25.939 1.25665 22.0308 3.81815C18.1226 6.37965 14.818 8.56391 13.0409 11.6216C7.68184 10.4252 0.853074 12.921 0.077892 19.2076C-0.692809 25.4897 4.42031 27.1115 8.14366 30.1196C8.72617 35.3263 9.94017 44.2285 12.4584 48.9513C14.9721 53.6696 16.9975 57.6486 21.2184 61.2467C25.4393 64.8448 28.9523 67.2913 34.2486 69.2763C39.5449 71.2613 46.898 71.9872 52.9202 71.6646C55.8386 77.6782 64.4024 75.9051 67.1191 71.25C69.8357 66.5949 69.0067 68.4305 70.0365 66.5186C72.7756 64.85 75.1101 62.4662 77.1524 60.0503C79.8316 56.8811 81.8543 56.7859 79.4243 54.9959C78.6101 54.3961 76.4239 54.9614 74.9479 54.9959C74.7686 58.9838 75.6335 56.0982 72.0757 59.0062C69.7186 60.9305 68.0955 62.1838 66.0175 63.3024C65.4717 64.5688 64.7102 65.8193 64.2343 67.2958C62.3606 71.5075 56.3004 72.6798 55.6087 66.7357C31.9724 71.5301 10.1194 50.0715 13.0409 26.4083C10.3121 25.2567 5.33389 23.5002 5.13673 19.5526C4.9351 15.605 12.7496 15.3631 15.2813 16.9986C16.6928 14.4535 18.2146 12.3757 20.7148 10.3338C23.2149 8.29201 25.1532 6.34806 28.7238 6.24461C30.4589 6.19433 32.6646 6.5042 34.4855 7.50397C35.55 6.6275 36.0454 6.14693 36.8894 5.60346C40.3594 3.36889 42.6012 6.24211 40.7204 12.0697Z" fill="#2DB5E4"/>
<path d="M177.22 91.5977C175.851 91.5977 174.538 91.4184 173.283 91.0597C172.027 90.6847 171.016 90.2037 170.25 89.6168L171.595 86.6331C172.329 87.1548 173.193 87.5869 174.188 87.9293C175.198 88.2553 176.217 88.4184 177.245 88.4184C178.027 88.4184 178.655 88.345 179.128 88.1983C179.617 88.0352 179.976 87.8151 180.204 87.538C180.432 87.2608 180.546 86.9429 180.546 86.5842C180.546 86.1276 180.367 85.7689 180.008 85.5081C179.649 85.2309 179.177 85.0108 178.59 84.8477C178.003 84.6684 177.351 84.5054 176.633 84.3586C175.932 84.1956 175.223 83.9999 174.505 83.7717C173.804 83.5434 173.16 83.2499 172.573 82.8912C171.986 82.5325 171.505 82.0597 171.13 81.4727C170.772 80.8858 170.592 80.1358 170.592 79.2227C170.592 78.2445 170.853 77.3559 171.375 76.557C171.913 75.7418 172.712 75.0977 173.772 74.6249C174.848 74.1358 176.193 73.8912 177.807 73.8912C178.883 73.8912 179.943 74.0217 180.986 74.2825C182.03 74.5271 182.951 74.9021 183.75 75.4075L182.527 78.4157C181.728 77.9592 180.929 77.6249 180.13 77.413C179.332 77.1847 178.549 77.0706 177.783 77.0706C177.016 77.0706 176.389 77.1602 175.899 77.3396C175.41 77.5189 175.06 77.7554 174.848 78.0488C174.636 78.326 174.53 78.6521 174.53 79.0271C174.53 79.4673 174.709 79.826 175.068 80.1032C175.427 80.364 175.899 80.576 176.486 80.739C177.073 80.9021 177.717 81.0651 178.418 81.2282C179.136 81.3912 179.845 81.5787 180.546 81.7907C181.264 82.0026 181.916 82.288 182.503 82.6467C183.09 83.0054 183.563 83.4782 183.921 84.0651C184.296 84.6521 184.484 85.3939 184.484 86.2907C184.484 87.2526 184.215 88.1331 183.677 88.932C183.139 89.7309 182.332 90.3749 181.255 90.864C180.196 91.3532 178.851 91.5977 177.22 91.5977Z" fill="#02579A"/>
<path d="M202.378 91.5977C199.949 91.5977 198.05 90.9211 196.68 89.5678C195.31 88.2146 194.626 86.2825 194.626 83.7717V74.1847H198.588V83.6249C198.588 85.2554 198.922 86.4293 199.59 87.1467C200.259 87.864 201.196 88.2227 202.403 88.2227C203.609 88.2227 204.547 87.864 205.215 87.1467C205.884 86.4293 206.218 85.2554 206.218 83.6249V74.1847H210.131V83.7717C210.131 86.2825 209.446 88.2146 208.077 89.5678C206.707 90.9211 204.808 91.5977 202.378 91.5977Z" fill="#02579A"/>
<path d="M221.628 91.3043V74.1847H225.59V91.3043H221.628Z" fill="#02579A"/>
<path d="M240.78 91.3043V77.413H235.302V74.1847H250.221V77.413H244.742V91.3043H240.78Z" fill="#02579A"/>
<path d="M263.578 81.0814H271.82V84.163H263.578V81.0814ZM263.871 88.1249H273.189V91.3043H259.934V74.1847H272.871V77.364H263.871V88.1249Z" fill="#02579A"/>
<path d="M289.548 91.5977C288.179 91.5977 286.866 91.4184 285.611 91.0597C284.355 90.6847 283.344 90.2037 282.578 89.6168L283.923 86.6331C284.657 87.1548 285.521 87.5869 286.516 87.9293C287.526 88.2553 288.545 88.4184 289.573 88.4184C290.355 88.4184 290.983 88.345 291.456 88.1983C291.945 88.0352 292.304 87.8151 292.532 87.538C292.76 87.2608 292.874 86.9429 292.874 86.5842C292.874 86.1276 292.695 85.7689 292.336 85.5081C291.978 85.2309 291.505 85.0108 290.918 84.8477C290.331 84.6684 289.679 84.5054 288.961 84.3586C288.26 84.1956 287.551 83.9999 286.833 83.7717C286.132 83.5434 285.488 83.2499 284.901 82.8912C284.314 82.5325 283.833 82.0597 283.458 81.4727C283.1 80.8858 282.92 80.1358 282.92 79.2227C282.92 78.2445 283.181 77.3559 283.703 76.557C284.241 75.7418 285.04 75.0977 286.1 74.6249C287.176 74.1358 288.521 73.8912 290.135 73.8912C291.211 73.8912 292.271 74.0217 293.314 74.2825C294.358 74.5271 295.279 74.9021 296.078 75.4075L294.855 78.4157C294.056 77.9592 293.257 77.6249 292.458 77.413C291.66 77.1847 290.877 77.0706 290.111 77.0706C289.344 77.0706 288.717 77.1602 288.227 77.3396C287.738 77.5189 287.388 77.7554 287.176 78.0488C286.964 78.326 286.858 78.6521 286.858 79.0271C286.858 79.4673 287.037 79.826 287.396 80.1032C287.755 80.364 288.227 80.576 288.814 80.739C289.401 80.9021 290.045 81.0651 290.747 81.2282C291.464 81.3912 292.173 81.5787 292.874 81.7907C293.592 82.0026 294.244 82.288 294.831 82.6467C295.418 83.0054 295.891 83.4782 296.249 84.0651C296.624 84.6521 296.812 85.3939 296.812 86.2907C296.812 87.2526 296.543 88.1331 296.005 88.932C295.467 89.7309 294.66 90.3749 293.583 90.864C292.524 91.3532 291.179 91.5977 289.548 91.5977Z" fill="#02579A"/>
</svg>
